<svg width="86" height="103" viewBox="0 0 86 103" fill="none" xmlns="http://www.w3.org/2000/svg">
<path d="M80.571 55.5885C78.1777 53.1901 74.9421 51.8215 71.5542 51.7745C68.1662 51.7276 64.8939 53.006 62.435 55.3372L61.8701 55.8597V59.2491L64.1297 57.1392C66.1229 55.2551 68.7722 54.2223 71.5146 54.2603C74.2571 54.2983 76.8768 55.404 78.817 57.3425C78.9575 57.4824 79.0817 57.6378 79.187 57.8058C80.2103 58.1329 81.1835 58.5996 82.0793 59.1926C82.0723 57.8392 81.5301 56.5435 80.571 55.5885Z" fill="#FF30D6"/>
<path d="M50.5665 7.50165C48.9914 7.49947 47.4482 7.94624 46.1179 8.78961C46.6048 9.46912 46.9858 10.2186 47.2477 11.0125C47.9152 10.5471 48.6734 10.2277 49.4726 10.075C50.2719 9.92237 51.0944 9.93989 51.8864 10.1264C52.6785 10.313 53.4223 10.6644 54.0694 11.1577C54.7166 11.6511 55.2524 12.2753 55.6421 12.9896C56.7392 13.1203 57.7876 13.5179 58.6954 14.1477C57.8113 10.2922 54.5603 7.50165 50.5665 7.50165Z" fill="#FF30D6"/>
<path d="M35.865 0.191896C34.3739 0.192313 32.9072 0.570474 31.6018 1.29109C30.2964 2.01171 29.1948 3.05129 28.3999 4.31282C28.0642 3.72387 27.6562 3.17923 27.1854 2.69157C26.4037 1.8882 25.4667 1.25229 24.4315 0.822561C23.3962 0.392828 22.2844 0.178255 21.1636 0.191896C18.9499 0.194139 16.8276 1.0745 15.2623 2.63979C13.697 4.20508 12.8166 6.32742 12.8144 8.54108V14.9837C11.4444 13.7443 9.66245 13.0587 7.81503 13.0603C3.62632 13.0603 0.34426 16.4496 0.34426 20.7824V71.9593C0.337796 77.113 1.75969 82.1677 4.45207 86.5623C7.14446 90.9569 11.002 94.5193 15.5965 96.8543C12.6893 94.4825 10.3142 91.5251 8.62566 88.1746C4.85791 83.6115 2.80019 77.8768 2.80722 71.9593V20.7852C2.80722 18.2432 4.56123 15.5345 7.80656 15.5345C8.77405 15.5366 9.72016 15.8192 10.5303 16.3481C11.3404 16.877 11.9798 17.6294 12.3709 18.5143C13.3997 18.5716 14.3978 18.8852 15.2745 19.4266V8.54108C15.276 6.98266 15.8957 5.4885 16.9977 4.38653C18.0997 3.28456 19.5938 2.66482 21.1523 2.66332C21.9396 2.65199 22.7211 2.8006 23.4493 3.10016C24.1776 3.39971 24.8375 3.84397 25.389 4.40602C25.7563 4.789 26.0682 5.2216 26.3154 5.69117C27.5804 5.84182 28.78 6.3361 29.7839 7.12036C30.1382 5.95518 30.8227 4.91776 31.7547 4.13382C32.6867 3.34987 33.826 2.85307 35.0347 2.70359C36.2433 2.55412 37.4694 2.75841 38.5642 3.29168C39.6591 3.82496 40.5758 4.66435 41.2033 5.70812C42.3437 5.88077 43.4259 6.32545 44.3582 7.00455C43.9853 5.53981 43.2699 4.18455 42.2709 3.05027C41.4679 2.14566 40.4811 1.42277 39.3764 0.929859C38.2717 0.436948 37.0746 0.18536 35.865 0.191896Z" fill="#FF30D6"/>
<path d="M58.9155 58.6475L61.8812 55.8597V20.4322C61.8897 19.2066 61.6046 17.9968 61.0499 16.9039C60.4951 15.8111 59.6867 14.867 58.6924 14.1505C58.8461 14.8328 58.9238 15.53 58.924 16.2293L58.9155 58.6475Z" fill="#45E9FF"/>
<path d="M57.6813 84.0819L78.9101 61.0511C79.3092 60.6174 79.5535 60.0637 79.6046 59.4765C79.6557 58.8894 79.5108 58.3018 79.1925 57.8057C77.1827 57.1567 75.0356 57.0586 72.975 57.5216C70.9144 57.9846 69.0156 58.9918 67.4766 60.4381L61.8756 65.7058V59.249L58.5201 62.404C58.2894 62.6176 57.9872 62.7375 57.6728 62.7401H43.2679C40.988 62.7393 38.7347 63.2301 36.6616 64.1791C34.5886 65.1281 32.7446 66.513 31.2554 68.2394L29.3856 66.6238C31.1069 64.629 33.238 63.0288 35.6336 61.9321C38.0293 60.8354 40.6332 60.2681 43.2679 60.2687H56.4328V16.2293C56.4474 15.1039 56.1711 13.9938 55.6307 13.0066C54.6308 12.8828 53.616 12.9731 52.6538 13.2715C51.6915 13.57 50.8037 14.0697 50.0493 14.7375C49.2949 15.4053 48.6913 16.226 48.2783 17.145C47.8654 18.064 47.6527 19.0603 47.6543 20.0678V13.6223C47.6527 12.7358 47.5116 11.8551 47.2363 11.0125C46.4517 11.5521 45.8103 12.2746 45.3674 13.1175C44.9245 13.9605 44.6935 14.8986 44.6943 15.8508V44.943H42.2228V9.41946C42.2409 8.11688 41.8967 6.83491 41.2286 5.71656C40.8463 5.65838 40.4601 5.62911 40.0734 5.62901C39.0771 5.62901 38.0906 5.82524 37.1702 6.2065C36.2497 6.58776 35.4134 7.14658 34.7089 7.85106C34.0044 8.55553 33.4456 9.39187 33.0643 10.3123C32.6831 11.2328 32.4868 12.2193 32.4868 13.2156V12.7637C32.4975 11.6808 32.2621 10.6096 31.7982 9.63097C31.3344 8.65238 30.6543 7.79197 29.8092 7.11469C29.6202 7.72763 29.5249 8.36565 29.5268 9.00709V44.9374H27.0554V8.56082C27.059 7.56047 26.8155 6.57471 26.3464 5.69114C26.0251 5.65021 25.7015 5.62946 25.3776 5.62901C23.4914 5.62901 21.6824 6.37831 20.3486 7.71208C19.0149 9.04585 18.2656 10.8548 18.2656 12.7411V24.7366C18.2661 23.6719 17.9938 22.6248 17.4746 21.6952C16.9554 20.7656 16.2067 19.9846 15.2998 19.4266V44.9374H12.8284V20.5338C12.8208 19.8358 12.6648 19.1474 12.3709 18.5143C12.2494 18.5143 12.128 18.5002 12.0065 18.5002C8.26688 18.5002 5.77003 21.5648 5.77003 24.9965V76.1592C5.76618 80.3326 6.74336 84.4484 8.62275 88.1746C10.9606 91.0298 13.9028 93.3308 17.2372 94.9118C20.5717 96.4928 24.2153 97.3144 27.9055 97.3175C40.5762 97.3175 49.1993 93.4818 57.6813 84.0819Z" fill="#45E9FF"/>
<path d="M83.9009 60.6669C83.3467 60.1179 82.7404 59.6241 82.0905 59.1926C82.1008 60.4989 81.6118 61.7598 80.7234 62.7175L59.5059 85.7371C55.1533 90.5613 50.9194 93.8575 46.1884 96.0973C40.9518 98.5744 34.9752 99.7691 27.9112 99.7691C23.6343 99.774 19.4167 98.7685 15.6021 96.8345C20.2561 100.653 26.091 102.738 32.1112 102.735C46.3635 102.735 54.9613 97.7779 62.7992 89.0897L84.0167 66.0702C84.697 65.3279 85.0646 64.3519 85.043 63.3453C85.0214 62.3388 84.6123 61.3793 83.9009 60.6669Z" fill="#45E9FF"/>
<path d="M44.6859 9.92506C45.1209 9.49765 45.6011 9.11883 46.1179 8.79527C45.6379 8.11194 45.0492 7.5118 44.3752 7.01867C44.5801 7.80446 44.6845 8.61307 44.6859 9.42513V9.92506Z" fill="#45E9FF"/>
<path d="M27.0413 44.9374H29.5127V9.01276C29.5108 8.37132 29.6061 7.7333 29.7951 7.12036C28.7912 6.3361 27.5917 5.84182 26.3267 5.69117C26.7957 6.57473 27.0393 7.5605 27.0356 8.56085L27.0413 44.9374Z" fill="#452CD6"/>
<path d="M12.8143 44.9374H15.2857V19.4266C14.4057 18.8834 13.4035 18.5697 12.3708 18.5143C12.6561 19.1493 12.8034 19.8377 12.803 20.5338L12.8143 44.9374Z" fill="#452CD6"/>
<path d="M42.2144 44.9374H44.6858V15.8452C44.6851 14.893 44.9161 13.9549 45.359 13.1119C45.8019 12.2689 46.4433 11.5465 47.2279 11.0068C46.966 10.213 46.585 9.46348 46.0981 8.78397C45.5812 9.10753 45.101 9.48635 44.6661 9.91376V9.41948C44.6647 8.60742 44.5603 7.79881 44.3554 7.01302C43.423 6.33391 42.3409 5.88924 41.2004 5.71658C41.8685 6.83493 42.2127 8.1169 42.1947 9.41948L42.2144 44.9374Z" fill="#452CD6"/>
<path d="M79.1984 57.8057C79.5166 58.3018 79.6615 58.8894 79.6104 59.4765C79.5593 60.0637 79.3151 60.6174 78.9159 61.0511L57.6871 84.0819C49.2136 93.4818 40.582 97.3175 27.9198 97.3175C24.2301 97.314 20.587 96.4922 17.2531 94.9112C13.9192 93.3302 10.9775 91.0294 8.63989 88.1746C10.3284 91.5251 12.7036 94.4825 15.6107 96.8542C19.4211 98.7861 23.6336 99.7916 27.9057 99.7889C34.9669 99.7889 40.9464 98.5828 46.183 96.1171C50.914 93.8772 55.1479 90.5811 59.5004 85.7568L80.7236 62.7175C81.613 61.7572 82.1011 60.4929 82.0878 59.1841C81.1924 58.5943 80.2202 58.1305 79.1984 57.8057Z" fill="#452CD6"/>
<path d="M31.2497 68.2394C32.7389 66.513 34.5829 65.1281 36.656 64.1791C38.729 63.2301 40.9823 62.7393 43.2622 62.7401H57.6671C57.9816 62.7375 58.2837 62.6177 58.5145 62.404L61.8699 59.2491V55.8597L58.9042 58.6475V16.2293C58.904 15.53 58.8263 14.8328 58.6726 14.1505C57.7648 13.5207 56.7165 13.1231 55.6194 12.9925C56.1661 13.9828 56.4464 15.0981 56.4328 16.2293V60.2687H43.2622C40.6275 60.2681 38.0236 60.8355 35.6279 61.9321C33.2323 63.0288 31.1012 64.6291 29.3799 66.6238L31.2497 68.2394Z" fill="#452CD6"/>
</svg>
