<svg width="77" height="83" viewBox="0 0 77 83" fill="none" xmlns="http://www.w3.org/2000/svg">
<path d="M2.46013 47.4033V38.1983C2.97526 38.7607 3.55664 39.2586 4.19154 39.6812V36.4217C3.07539 35.1589 2.45958 33.5315 2.46013 31.8461V21.1554C2.45886 19.8203 2.84332 18.5134 3.56729 17.3916C4.29125 16.2699 5.32388 15.3813 6.54095 14.8326C7.75802 14.2839 9.10771 14.0985 10.4277 14.2987C11.7476 14.4989 12.9816 15.0762 13.9812 15.9612C15.7013 16.0287 17.3692 16.5713 18.7998 17.5287V10.5975C18.7984 9.17683 19.2031 7.7854 19.9661 6.58705C20.7291 5.38871 21.8186 4.43337 23.1064 3.83355C24.3942 3.23373 25.8266 3.01441 27.2349 3.20143C28.6431 3.38845 29.9686 3.97403 31.0552 4.88917C33.2483 5.02002 35.3353 5.87768 36.9866 7.32671C37.4942 6.30786 38.2257 5.41703 39.1263 4.7209C40.027 4.02477 41.0734 3.54138 42.1873 3.30692C43.3011 3.07247 44.4536 3.09301 45.5584 3.36701C46.6633 3.64102 47.6918 4.16139 48.567 4.88917C50.7264 5.02205 52.7842 5.85269 54.4307 7.25609C54.8647 6.38317 55.4981 5.62461 56.2795 5.04175C57.061 4.45889 57.9686 4.06807 58.9291 3.9009C59.8895 3.73372 60.8758 3.79486 61.8083 4.0794C62.7407 4.36394 63.5931 4.86387 64.2966 5.5388C65.532 5.55163 66.7504 5.82901 67.8696 6.35225C67.196 4.90933 66.1388 3.67927 64.8136 2.79646C63.4883 1.91365 61.9459 1.41205 60.3548 1.34646C58.7638 1.28087 57.1853 1.65382 55.7919 2.42455C54.3984 3.19528 53.2436 4.33415 52.4535 5.71675C51.5711 4.1722 50.2934 2.89039 48.7517 2.00296C47.21 1.11553 45.4599 0.654471 43.681 0.667124C41.9022 0.679776 40.1588 1.16569 38.6299 2.07496C37.101 2.98423 35.8417 4.28409 34.9813 5.84102C33.9227 3.90756 32.2509 2.38124 30.2293 1.50254C28.2077 0.623844 25.9512 0.442717 23.8153 0.987688C21.6794 1.53266 19.7856 2.77276 18.4321 4.51261C17.0787 6.25245 16.3425 8.39316 16.3397 10.5975V14.8059C15.0602 13.4076 13.3879 12.4286 11.5423 11.9973C9.6966 11.566 7.76368 11.7026 5.997 12.3891C4.23032 13.0756 2.71236 14.28 1.64219 15.8444C0.572017 17.4088 -0.000405004 19.26 2.14993e-07 21.1554V47.4033C0.000690251 51.9935 1.01736 56.5267 2.97705 60.6775C4.93673 64.8284 7.79087 68.494 11.3347 71.4115C8.5294 68.0209 6.47506 64.0739 5.30721 59.8311C3.43193 55.9566 2.45855 51.7078 2.46013 47.4033Z" fill="#FF30D6"/>
<path d="M75.5692 39.958C74.9375 38.2722 74.0287 36.7037 72.8803 35.3173V14.2269C72.8781 12.5731 72.4048 10.9542 71.516 9.55962C70.6271 8.16503 69.3593 7.0525 67.8611 6.35225C68.3993 7.50148 68.678 8.75507 68.6774 10.0241V31.1145C71.0775 34.0065 72.3922 37.6459 72.3944 41.4041C72.3944 61.876 55.73 78.532 35.2666 78.532H31.1315C23.896 78.5383 16.8859 76.0144 11.3149 71.3973C14.2322 74.9413 17.8979 77.7955 22.0487 79.7552C26.1996 81.7149 30.7328 82.7315 35.3231 82.732H39.4609C59.9328 82.732 76.586 66.0675 76.586 45.6041C76.5884 43.6763 76.244 41.7638 75.5692 39.958Z" fill="#45E9FF"/>
<path d="M4.18311 25.3554V36.4217C5.11187 37.4844 6.34303 38.2381 7.71186 38.582C9.08068 38.9259 10.5219 38.8435 11.8426 38.3459C13.1633 37.8483 14.3006 36.9593 15.1023 35.7977C15.9039 34.6361 16.3317 33.2574 16.3284 31.8461V21.1554C16.3294 20.1724 16.1205 19.2006 15.7157 18.3048C15.3109 17.4091 14.7196 16.61 13.9812 15.9612C13.8541 15.9612 13.727 15.9612 13.5971 15.9612C11.104 15.9619 8.71295 16.9513 6.94821 18.7123C5.18347 20.4733 4.18909 22.8623 4.18311 25.3554Z" fill="#45E9FF"/>
<path d="M5.28452 59.8282C7.62803 64.6936 11.296 68.7996 15.8674 71.6748C20.4387 74.55 25.7282 76.0779 31.1286 76.0832H35.2636C44.4519 76.0727 53.2608 72.418 59.7579 65.921C66.2549 59.4239 69.9096 50.615 69.9201 41.4267C69.9186 37.7978 68.4757 34.3181 65.9089 31.7529C63.3421 29.1876 59.8615 27.747 56.2326 27.7477H20.4803C20.0308 27.7477 19.5997 27.9263 19.2819 28.2441C18.9641 28.5619 18.7856 28.993 18.7856 29.4424V31.2699C18.7893 34.3767 20.0252 37.3553 22.222 39.5522C24.4189 41.7491 27.3975 42.9849 30.5044 42.9887H48.245V45.4601H48.0416C44.5529 45.4638 41.2083 46.8515 38.7417 49.3186C36.2751 51.7857 34.8881 55.1307 34.8851 58.6194V62.8561H32.4137V58.5996C32.4142 55.9781 33.0741 53.3988 34.3327 51.0992C35.5914 48.7997 37.4083 46.8536 39.6161 45.4403H30.51C27.7148 45.4355 24.983 44.6066 22.6565 43.0572C20.3299 41.5079 18.5119 39.3069 17.4298 36.7296C16.7729 37.8131 15.9035 38.7524 14.8739 39.491C13.8444 40.2296 12.6761 40.7523 11.4393 41.0275C10.2024 41.3028 8.92273 41.3249 7.67714 41.0925C6.43155 40.8602 5.24586 40.3782 4.19145 39.6755V51.6033C4.18695 54.3815 4.55457 57.1477 5.28452 59.8282Z" fill="#45E9FF"/>
<path d="M56.645 9.91675C56.0625 8.9087 55.3105 8.00863 54.4221 7.25609C53.9907 8.11497 53.7662 9.06292 53.7668 10.0241V25.2763H56.2326C59.8504 25.2736 63.3637 26.4894 66.2059 28.7278V10.0241C66.2053 9.18575 66.0351 8.3562 65.7055 7.58538C65.3759 6.81455 64.8938 6.11839 64.2881 5.5388H64.1892C62.6575 5.53927 61.1531 5.94441 59.8283 6.71319C58.5035 7.48198 57.4054 8.58712 56.645 9.91675Z" fill="#45E9FF"/>
<path d="M39.1784 10.041C38.6135 9.01489 37.8726 8.09612 36.9894 7.3267C36.4649 8.37147 36.1921 9.52446 36.1929 10.6935V25.265H51.3039V10.6935C51.3043 9.58538 51.0606 8.49079 50.59 7.48758C50.1194 6.48437 49.4335 5.5972 48.5811 4.88917C48.3721 4.88917 48.163 4.8694 47.9512 4.8694C46.1605 4.87031 44.4027 5.35036 42.86 6.25974C41.3174 7.16911 40.0462 8.47469 39.1784 10.041Z" fill="#45E9FF"/>
<path d="M20.5368 14.8003V19.0088C20.0224 18.4465 19.4409 17.9494 18.8054 17.5287V21.1554V25.6209C19.3391 25.3847 19.9165 25.2635 20.5001 25.265H33.7328V10.5975C33.7329 9.50888 33.4942 8.43354 33.0335 7.44726C32.5728 6.46097 31.9014 5.58776 31.0665 4.88917C30.8716 4.88917 30.6739 4.8694 30.4734 4.8694C27.8395 4.87089 25.3138 5.91748 23.4508 7.7794C21.5878 9.64131 20.5398 12.1664 20.5368 14.8003Z" fill="#45E9FF"/>
<path d="M35.2665 78.5546C55.7384 78.5546 72.3944 61.8901 72.3944 41.4267C72.3921 37.6685 71.0774 34.0291 68.6774 31.1371V10.0241C68.678 8.75508 68.3993 7.50149 67.8611 6.35226C66.7419 5.82901 65.5235 5.55163 64.2881 5.5388C64.8938 6.1184 65.376 6.81456 65.7056 7.58538C66.0352 8.35621 66.2054 9.18576 66.206 10.0241V28.7165C63.3638 26.4781 59.8505 25.2623 56.2327 25.265H53.7669V10.0128C53.7663 9.05163 53.9907 8.10367 54.4222 7.2448C52.7795 5.84422 50.7271 5.01376 48.5727 4.87788C49.4251 5.5859 50.111 6.47308 50.5816 7.47629C51.0522 8.4795 51.296 9.57408 51.2955 10.6822V25.2537H36.1845V10.6935C36.1837 9.52446 36.4565 8.37148 36.981 7.32671C35.3296 5.87768 33.2426 5.02002 31.0496 4.88918C31.8844 5.58776 32.5559 6.46098 33.0165 7.44726C33.4772 8.43355 33.716 9.50889 33.7159 10.5975V25.265H20.4803C19.8967 25.2635 19.3193 25.3847 18.7857 25.6209V21.1554V17.5287C17.355 16.5713 15.6872 16.0287 13.9671 15.9612C14.7055 16.61 15.2968 17.4091 15.7016 18.3048C16.1063 19.2006 16.3152 20.1724 16.3142 21.1554V31.8461C16.3175 33.2574 15.8898 34.6361 15.0881 35.7977C14.2865 36.9593 13.1492 37.8483 11.8284 38.3459C10.5077 38.8435 9.06652 38.9259 7.6977 38.582C6.32887 38.2381 5.09771 37.4844 4.16895 36.4217V39.6755C5.22414 40.3818 6.4116 40.8668 7.65955 41.1012C8.9075 41.3355 10.19 41.3144 11.4295 41.039C12.6691 40.7637 13.8399 40.2398 14.8713 39.4991C15.9026 38.7584 16.773 37.8162 17.4299 36.7296C18.5126 39.3082 20.3319 41.5101 22.6601 43.0596C24.9883 44.609 27.7219 45.4372 30.5186 45.4403H39.6304C37.4225 46.8536 35.6056 48.7997 34.347 51.0993C33.0883 53.3988 32.4284 55.9781 32.4279 58.5996V62.8561H34.8994V58.5996C34.9023 55.1109 36.2893 51.766 38.7559 49.2989C41.2225 46.8318 44.5672 45.4441 48.0558 45.4403H48.2592V42.9689H30.5101C27.4032 42.9652 24.4247 41.7293 22.2278 39.5324C20.0309 37.3355 18.795 34.357 18.7913 31.2501V29.4227C18.7913 28.9732 18.9699 28.5421 19.2877 28.2243C19.6055 27.9065 20.0365 27.728 20.486 27.728H56.2327C59.8572 27.7265 63.3343 29.1629 65.9009 31.7221C68.4675 34.2813 69.914 37.7542 69.923 41.3787C69.9125 50.567 66.2579 59.3759 59.7608 65.8729C53.2637 72.37 44.4548 76.0247 35.2665 76.0351H31.1315C25.7357 76.0348 20.4493 74.5143 15.8779 71.6479C11.3065 68.7815 7.63514 64.6851 5.28462 59.8282C6.45247 64.0711 8.50681 68.018 11.3121 71.4086C16.8831 76.0257 23.8931 78.5496 31.1287 78.5433L35.2665 78.5546Z" fill="#452CD6"/>
</svg>
