<svg width="71" height="108" viewBox="0 0 71 108" fill="none" xmlns="http://www.w3.org/2000/svg">
<path d="M69.0775 7.55602C68.2296 6.42634 67.1105 5.52873 65.8237 4.94619C66.4846 6.40064 66.7159 8.01374 66.4903 9.59529C64.9114 21.3875 63.7138 29.8101 62.8382 35.959C60.1945 54.547 60.1945 54.547 60.1945 72.8468C60.1945 81.7326 56.8362 89.7768 50.7353 95.4964C45.1715 100.678 37.8495 103.557 30.2465 103.552C29.6025 103.552 28.9576 103.53 28.3117 103.487C22.2489 103.089 16.466 100.789 11.7856 96.9143C12.0455 97.2278 12.3082 97.5385 12.5793 97.8435C17.8018 103.699 24.8828 107.195 32.5117 107.69C33.1585 107.732 33.8025 107.752 34.4493 107.752C42.0523 107.756 49.3741 104.878 54.9381 99.6964C61.0362 93.9796 64.3973 85.9355 64.3973 77.0468C64.3973 58.7498 64.3974 58.7498 67.0411 40.1619C67.9138 34.013 69.1142 25.5904 70.6931 13.7953C70.8502 12.7001 70.7883 11.5847 70.5109 10.5137C70.2336 9.44262 69.7464 8.4373 69.0775 7.55602Z" fill="#45E9FF"/>
<path d="M32.0487 40.2805C32.9603 41.7044 33.4436 43.3603 33.4411 45.0511V56.7021H44.0443C46.7841 56.7036 49.4785 57.4016 51.8743 58.7307C54.2701 60.0598 56.2887 61.9763 57.7402 64.2999C57.8136 53.742 58.2147 50.926 60.3924 35.6173C61.2652 29.4712 62.4627 21.0542 64.0444 9.26483C64.1723 8.3466 64.0841 7.41122 63.787 6.53305C63.4898 5.65488 62.9919 4.85815 62.3328 4.20618C60.3065 4.21132 58.3498 4.94658 56.8216 6.27719C55.2933 7.6078 54.2958 9.44462 54.0119 11.451L49.4927 42.3622L48.3347 34.4084L46.5129 46.9124C46.4683 47.2048 46.3204 47.4716 46.0961 47.6644C45.8717 47.8571 45.5857 47.9631 45.2899 47.9631C44.9941 47.9631 44.708 47.8571 44.4837 47.6644C44.2593 47.4716 44.1114 47.2048 44.0669 46.9124L38.3642 7.72266C38.1817 6.43545 37.5801 5.24424 36.6526 4.33328C35.4476 4.33413 34.257 4.59376 33.161 5.09462C32.0651 5.59547 31.0896 6.32587 30.3004 7.23638C29.5111 8.1469 28.9267 9.2163 28.5866 10.3722C28.2465 11.5282 28.1585 12.7437 28.3288 13.9365L32.0487 40.2805Z" fill="#45E9FF"/>
<path d="M9.26618 67.6921C10.8245 67.69 12.3288 67.1211 13.4986 66.0916C14.6685 65.0621 15.4239 63.6422 15.6241 62.0968C15.6241 62.0262 15.6241 61.9556 15.6241 61.8878C15.6234 61.6392 15.6413 61.3909 15.6778 61.145V51.9513C15.6779 51.0749 15.4977 50.2079 15.1483 49.4042C14.7989 48.6005 14.2879 47.8773 13.647 47.2796H13.4718C11.1183 47.2826 8.86207 48.2188 7.19789 49.883C5.53371 51.5472 4.59747 53.8034 4.59448 56.1569V65.6557C5.19167 66.2976 5.91464 66.8098 6.71838 67.1601C7.52212 67.5105 8.38939 67.6916 9.26618 67.6921Z" fill="#45E9FF"/>
<path d="M49.0463 93.7028C54.6416 88.4578 57.7232 81.0548 57.7232 72.8581C57.7194 69.2314 56.277 65.7543 53.7125 63.1898C51.148 60.6253 47.6709 59.1829 44.0442 59.1792H20.8212C20.1935 59.1799 19.5854 59.3976 19.0999 59.7956C18.6145 60.1935 18.2816 60.7471 18.1577 61.3625C18.1577 61.6449 18.138 61.9274 18.1097 62.2098C18.1954 64.7313 19.2565 67.1211 21.0695 68.8757C22.8825 70.6302 25.3058 71.6124 27.8288 71.6154H39.5532V74.0868C36.498 74.0905 33.5691 75.3058 31.4087 77.4662C29.2484 79.6265 28.0331 82.5555 28.0293 85.6107V89.3814H25.5579V85.6079C25.5583 83.3395 26.1102 81.1053 27.1661 79.0977C28.2221 77.0902 29.7504 75.3695 31.6192 74.084H27.8288C25.3939 74.0812 23.0154 73.3511 20.9984 71.9873C18.9814 70.6235 17.4178 68.6882 16.5082 66.4296C15.2025 68.2703 13.2435 69.5434 11.0311 69.989C8.81868 70.4346 6.51961 70.0192 4.60303 68.8276V76.8774C4.60165 79.7079 4.98166 82.5258 5.73283 85.2548C6.90512 87.7031 8.41701 89.9738 10.2238 91.9997C15.0254 97.3662 21.4906 100.572 28.4699 101.024C32.2175 101.269 35.9756 100.746 39.5139 99.4875C43.0522 98.2286 46.2959 96.2601 49.0463 93.7028Z" fill="#45E9FF"/>
<path d="M45.3039 38.1565L47.1003 25.8333L45.0243 11.5696C44.8258 10.1646 44.2756 8.83243 43.4249 7.69677C42.5741 6.5611 41.4503 5.6587 40.1577 5.07328C40.4871 5.80344 40.7115 6.57654 40.8243 7.36959L45.3039 38.1565Z" fill="#45E9FF"/>
<path d="M30.9697 56.7021V45.0511C30.9702 44.1742 30.7902 43.3067 30.4408 42.5024C30.0914 41.6982 29.5802 40.9746 28.9389 40.3766H28.7553C26.4013 40.3788 24.1443 41.3147 22.4795 42.979C20.8147 44.6432 19.8781 46.8999 19.8751 49.2539V50.0137C19.3591 49.4737 18.7785 48.9994 18.1465 48.6015V57.4364C18.9505 56.9525 19.8716 56.6975 20.81 56.6993L30.9697 56.7021Z" fill="#45E9FF"/>
<path d="M65.8238 4.94902C65.567 4.3853 65.2498 3.85116 64.8776 3.35602C63.8755 2.02525 62.5013 1.02153 60.9287 0.471806C59.3561 -0.0779219 57.6558 -0.148974 56.0429 0.267641C54.43 0.684256 52.9768 1.56982 51.8671 2.81235C50.7575 4.05488 50.0413 5.59855 49.809 7.24816L47.1003 25.8333L45.3039 38.1565L40.8243 7.36961C40.5087 5.15776 39.3281 3.16161 37.5418 1.81962C35.7555 0.477629 33.5095 -0.100448 31.2973 0.212363C29.0853 0.524619 27.0877 1.70227 25.7436 3.48655C24.3994 5.27083 23.8186 7.51576 24.1287 9.72806L27.9418 36.8572C26.8748 36.4166 25.7322 36.1883 24.5778 36.185H24.5524C22.1984 36.188 19.9417 37.1246 18.2775 38.7894C16.6132 40.4542 15.6773 42.7112 15.675 45.0652V45.825C14.4497 44.5446 12.8691 43.6604 11.1369 43.2863C9.40458 42.9122 7.59998 43.0653 5.95548 43.7259C4.31099 44.3865 2.90194 45.5243 1.90984 46.9928C0.917735 48.4613 0.388025 50.1932 0.388935 51.9654V72.6915C0.380507 80.4235 3.22115 87.8876 8.36811 93.6577C9.41787 94.8346 10.5567 95.9291 11.7744 96.9312C16.4548 100.806 22.2377 103.106 28.3005 103.504C28.9464 103.547 29.5913 103.569 30.2353 103.569C37.8383 103.574 45.1604 100.695 50.7241 95.5133C56.825 89.7937 60.1833 81.7496 60.1833 72.8638C60.1833 54.5639 60.1833 54.5639 62.827 35.976C63.7026 29.8271 64.9002 21.4045 66.4791 9.61225C66.711 8.02716 66.4836 6.40881 65.8238 4.94902ZM18.1578 45.0567C18.1593 43.358 18.8346 41.7292 20.0355 40.5277C21.2364 39.3262 22.865 38.6502 24.5637 38.648H24.5806C25.735 38.6513 26.8671 38.9665 27.857 39.5603C28.2452 39.7959 28.6078 40.0714 28.9388 40.3822C29.5801 40.9802 30.0914 41.7039 30.4408 42.5081C30.7902 43.3123 30.9702 44.1799 30.9696 45.0567V56.7021H20.8213C19.8828 56.7004 18.9618 56.9553 18.1578 57.4393V45.0511V45.0567ZM2.87165 51.9569C2.90684 50.2809 3.59736 48.6854 4.79514 47.5125C5.99292 46.3396 7.60259 45.6827 9.279 45.6827C10.9554 45.6827 12.5651 46.3396 13.7629 47.5125C14.9606 48.6854 15.6511 50.2809 15.6863 51.9569V61.1506C15.6499 61.3966 15.632 61.6449 15.6327 61.8935C15.6327 61.9613 15.6327 62.0319 15.6327 62.1025C15.4226 63.7156 14.607 65.1885 13.3512 66.2225C12.0954 67.2565 10.4934 67.7742 8.86996 67.6708C7.24653 67.5673 5.7232 66.8504 4.60882 65.6653C3.49444 64.4802 2.87239 62.9158 2.86882 61.289L2.87165 51.9569ZM49.0463 93.7028C46.2963 96.2598 43.053 98.228 39.5152 99.4869C35.9775 100.746 32.2199 101.269 28.4728 101.024C21.4935 100.572 15.0141 97.3662 10.2266 91.9997C5.49298 86.6768 2.87958 79.8006 2.88296 72.6774V67.4351C3.3987 67.9765 3.98039 68.451 4.61437 68.8474C6.53095 70.039 8.83 70.4544 11.0424 70.0088C13.2548 69.5632 15.2138 68.2901 16.5196 66.4494C17.4291 68.708 18.9927 70.6433 21.0097 72.0071C23.0268 73.3709 25.4053 74.101 27.8401 74.1037H31.6306C29.7617 75.3893 28.2334 77.11 27.1775 79.1175C26.1215 81.1251 25.5696 83.3593 25.5692 85.6276V89.3814H28.0406V85.6079C28.0444 82.5527 29.2597 79.6237 31.4201 77.4634C33.5804 75.303 36.5094 74.0877 39.5646 74.084V71.6125H27.8401C25.3171 71.6096 22.8938 70.6274 21.0808 68.8728C19.2678 67.1183 18.2067 64.7285 18.121 62.207C18.1493 61.9246 18.1663 61.6421 18.1691 61.3597C18.2929 60.7443 18.6258 60.1907 19.1112 59.7928C19.5967 59.3948 20.2048 59.177 20.8325 59.1763H44.0555C47.6822 59.1801 51.1593 60.6224 53.7238 63.1869C56.2883 65.7514 57.7307 69.2286 57.7345 72.8553C57.7232 81.0463 54.6416 88.4493 49.0463 93.7028ZM64.0443 9.25072C62.4626 21.0401 61.2651 29.4571 60.3923 35.6032C58.2146 50.9119 57.8135 53.7279 57.7401 64.2858C56.2886 61.9621 54.27 60.0457 51.8742 58.7166C49.4784 57.3875 46.784 56.6894 44.0442 56.688H33.4411V45.0511C33.4435 43.3603 32.9602 41.7044 32.0486 40.2805C31.666 39.683 31.2138 39.1331 30.7013 38.6423L26.5889 9.36935C26.3701 7.80598 26.7814 6.21974 27.7322 4.9596C28.683 3.69946 30.0954 2.86863 31.6588 2.6499C33.2222 2.43116 34.8084 2.84242 36.0686 3.79322C37.3287 4.74402 38.1595 6.15647 38.3782 7.71984L44.0809 46.9096C44.1255 47.202 44.2733 47.4688 44.4977 47.6616C44.7221 47.8543 45.0081 47.9603 45.3039 47.9603C45.5997 47.9603 45.8857 47.8543 46.1101 47.6616C46.3345 47.4688 46.4823 47.202 46.5269 46.9096L48.3487 34.4056L52.2549 7.59839C52.5001 6.05673 53.341 4.67303 54.5964 3.74524C55.8518 2.81745 57.4213 2.4198 58.967 2.63791C60.5127 2.85603 61.911 3.67248 62.8606 4.91142C63.8103 6.15037 64.2353 7.71272 64.0443 9.26202V9.25072Z" fill="#FF30D6"/>
<path d="M44.0808 46.9096C44.1254 47.202 44.2732 47.4688 44.4976 47.6616C44.722 47.8543 45.008 47.9603 45.3038 47.9603C45.5996 47.9603 45.8856 47.8543 46.11 47.6616C46.3344 47.4688 46.4822 47.202 46.5268 46.9096L48.3486 34.4056L47.1143 25.8333L45.3179 38.1565L40.8383 7.36962C40.7255 6.57657 40.5011 5.80347 40.1717 5.07331C39.0761 4.57335 37.885 4.31702 36.6807 4.322C37.6082 5.23296 38.2098 6.42417 38.3923 7.71138L44.0808 46.9096Z" fill="#452CD6"/>
<path d="M65.8237 4.94903C64.7261 4.45538 63.536 4.20119 62.3326 4.20337C62.9917 4.85533 63.4896 5.65207 63.7867 6.53024C64.0839 7.40841 64.172 8.3438 64.0442 9.26202C62.4625 21.0514 61.2649 29.4684 60.3922 35.6145C58.2145 50.9232 57.8134 53.7392 57.74 64.2971C56.2884 61.9735 54.2699 60.057 51.8741 58.7279C49.4782 57.3988 46.7838 56.7007 44.044 56.6993H33.4409V45.0511C33.4434 43.3603 32.9601 41.7044 32.0485 40.2805L32.1558 41.046C31.1347 40.6239 30.0435 40.3968 28.9387 40.3766C29.58 40.9746 30.0912 41.6982 30.4406 42.5024C30.79 43.3067 30.97 44.1742 30.9695 45.0511V56.7021H20.8211C19.8827 56.7004 18.9616 56.9553 18.1576 57.4393V48.6099C16.8047 47.7678 15.2488 47.3081 13.6554 47.2796C14.2963 47.8773 14.8074 48.6005 15.1568 49.4042C15.5061 50.2079 15.6864 51.0749 15.6862 51.9513V61.145C15.6498 61.3909 15.6318 61.6392 15.6325 61.8878C15.6325 61.9556 15.6325 62.0262 15.6325 62.0968C15.4797 63.3037 14.9861 64.4421 14.2096 65.3785C13.433 66.3149 12.4056 67.0106 11.2479 67.384C10.0901 67.7575 8.84986 67.7933 7.67248 67.4872C6.49511 67.1811 5.42936 66.5458 4.6001 65.6557V68.8276C6.51667 70.0193 8.81574 70.4347 11.0281 69.989C13.2406 69.5434 15.1995 68.2703 16.5053 66.4296C17.4149 68.6882 18.9785 70.6235 20.9955 71.9873C23.0125 73.3512 25.391 74.0812 27.8258 74.084H31.6163C29.7474 75.3695 28.2191 77.0902 27.1632 79.0977C26.1073 81.1053 25.5553 83.3395 25.555 85.6079V89.3814H28.0264V85.6079C28.0301 82.5527 29.2454 79.6237 31.4058 77.4634C33.5661 75.303 36.4951 74.0877 39.5503 74.084V71.6125H27.8258C25.3029 71.6096 22.8796 70.6274 21.0666 68.8728C19.2535 67.1183 18.1924 64.7285 18.1068 62.207C18.1351 61.9245 18.152 61.6421 18.1548 61.3597C18.2786 60.7443 18.6115 60.1907 19.097 59.7928C19.5825 59.3948 20.1906 59.177 20.8183 59.1763H44.0412C47.668 59.1801 51.1451 60.6224 53.7096 63.1869C56.2741 65.7514 57.7165 69.2286 57.7202 72.8553C57.7202 81.0463 54.6387 88.4549 49.0434 93.7C46.2939 96.2571 43.0512 98.2257 39.5139 99.4851C35.9767 100.744 32.2195 101.268 28.4727 101.024C21.4934 100.572 15.014 97.3662 10.2265 91.9997C8.41973 89.9738 6.90784 87.7031 5.73555 85.2548C6.90733 89.5259 8.97019 93.5005 11.7884 96.9171C16.4688 100.791 22.2516 103.091 28.3145 103.49C28.9603 103.533 29.6053 103.555 30.2493 103.555C37.8523 103.56 45.1743 100.681 50.7381 95.4992C56.839 89.7796 60.1973 81.7355 60.1973 72.8497C60.1973 54.5498 60.1973 54.5498 62.841 35.9619C63.7166 29.813 64.9142 21.3904 66.4931 9.59814C66.7178 8.01631 66.4856 6.40319 65.8237 4.94903Z" fill="#452CD6"/>
</svg>
